<svg xmlns="http://www.w3.org/2000/svg" xlink="http://www.w3.org/1999/xlink" width="0" height="0" style="display:none;"><symbol viewBox="0 0 24 24" id="home-2-line"><path fill="none" d="M0 0h24v24H0z"/><path d="M19 21H5a1 1 0 0 1-1-1v-9H1l10.327-9.388a1 1 0 0 1 1.346 0L23 11h-3v9a1 1 0 0 1-1 1zM6 19h12V9.157l-6-5.454-6 5.454V19z"/></symbol><symbol viewBox="0 0 24 24" id="arrow-up-s-line"><path fill="none" d="M0 0h24v24H0z"/><path d="M12 10.828l-4.95 4.95-1.414-1.414L12 8l6.364 6.364-1.414 1.414z"/></symbol><symbol viewBox="0 0 24 24" id="arrow-left-s-line"><path fill="none" d="M0 0h24v24H0z"/><path d="M10.828 12l4.95 4.95-1.414 1.414L8 12l6.364-6.364 1.414 1.414z"/></symbol><symbol viewBox="0 0 24 24" id="list-unordered"><path fill="none" d="M0 0h24v24H0z"/><path d="M8 4h13v2H8V4zM4.5 6.5a1.5 1.5 0 1 1 0-3 1.5 1.5 0 0 1 0 3zm0 7a1.5 1.5 0 1 1 0-3 1.5 1.5 0 0 1 0 3zm0 6.9a1.5 1.5 0 1 1 0-3 1.5 1.5 0 0 1 0 3zM8 11h13v2H8v-2zm0 7h13v2H8v-2z"/></symbol><symbol viewBox="0 0 24 24" id="layout-grid-line"><path fill="none" d="M0 0h24v24H0z"/><path d="M21 3a1 1 0 0 1 1 1v16a1 1 0 0 1-1 1H3a1 1 0 0 1-1-1V4a1 1 0 0 1 1-1h18zM11 13H4v6h7v-6zm9 0h-7v6h7v-6zm-9-8H4v6h7V5zm9 0h-7v6h7V5z"/></symbol><symbol viewBox="0 0 24 24" id="layout-grid-fill"><path fill="none" d="M0 0h24v24H0z"/><path d="M22 12.999V20a1 1 0 0 1-1 1h-8v-8.001h9zm-11 0V21H3a1 1 0 0 1-1-1v-7.001h9zM11 3v7.999H2V4a1 1 0 0 1 1-1h8zm10 0a1 1 0 0 1 1 1v6.999h-9V3h8z"/></symbol><symbol viewBox="0 0 24 24" id="folder-line"><path fill="none" d="M0 0h24v24H0z"/><path d="M4 5v14h16V7h-8.414l-2-2H4zm8.414 0H21a1 1 0 0 1 1 1v14a1 1 0 0 1-1 1H3a1 1 0 0 1-1-1V4a1 1 0 0 1 1-1h7.414l2 2z"/></symbol><symbol viewBox="0 0 24 24" id="folder-open-line"><path fill="none" d="M0 0h24v24H0z"/><path d="M3 21a1 1 0 0 1-1-1V4a1 1 0 0 1 1-1h7.414l2 2H20a1 1 0 0 1 1 1v3h-2V7h-7.414l-2-2H4v11.998L5.5 11h17l-2.31 9.243a1 1 0 0 1-.97.757H3zm16.938-8H7.062l-1.5 6h12.876l1.5-6z"/></symbol><symbol viewBox="0 0 24 24" id="file-line"><path fill="none" d="M0 0h24v24H0z"/><path d="M9 2.003V2h10.998C20.55 2 21 2.455 21 2.992v18.016a.993.993 0 0 1-.993.992H3.993A1 1 0 0 1 3 20.993V8l6-5.997zM5.83 8H9V4.83L5.83 8zM11 4v5a1 1 0 0 1-1 1H5v10h14V4h-8z"/></symbol><symbol viewBox="0 0 24 24" id="timer-line"><path fill="none" d="M0 0h24v24H0z"/><path d="M17.618 5.968l1.453-1.453 1.414 1.414-1.453 1.453a9 9 0 1 1-1.414-1.414zM12 20a7 7 0 1 0 0-14 7 7 0 0 0 0 14zM11 8h2v6h-2V8zM8 1h8v2H8V1z"/></symbol><symbol viewBox="0 0 24 24" id="external-link-line"><path fill="none" d="M0 0h24v24H0z"/><path d="M10 6v2H5v11h11v-5h2v6a1 1 0 0 1-1 1H4a1 1 0 0 1-1-1V7a1 1 0 0 1 1-1h6zm11-3v8h-2V6.413l-7.793 7.794-1.414-1.414L17.585 5H13V3h8z"/></symbol><symbol viewBox="0 0 24 24" id="image-2-line"><path fill="none" d="M0 0h24v24H0z"/><path d="M5 11.1l2-2 5.5 5.5 3.5-3.5 3 3V5H5v6.1zm0 2.829V19h3.1l2.986-2.985L7 11.929l-2 2zM10.929 19H19v-2.071l-3-3L10.929 19zM4 3h16a1 1 0 0 1 1 1v16a1 1 0 0 1-1 1H4a1 1 0 0 1-1-1V4a1 1 0 0 1 1-1zm11.5 7a1.5 1.5 0 1 1 0-3 1.5 1.5 0 0 1 0 3z"/></symbol><symbol viewBox="0 0 24 24" id="vidicon-line"><path fill="none" d="M0 0h24v24H0z"/><path d="M17 9.2l5.213-3.65a.5.5 0 0 1 .787.41v12.08a.5.5 0 0 1-.787.41L17 14.8V19a1 1 0 0 1-1 1H2a1 1 0 0 1-1-1V5a1 1 0 0 1 1-1h14a1 1 0 0 1 1 1v4.2zm0 3.159l4 2.8V8.84l-4 2.8v.718zM3 6v12h12V6H3zm2 2h2v2H5V8z"/></symbol><symbol viewBox="0 0 24 24" id="price-tag-3-line"><path fill="none" d="M0 0h24v24H0z"/><path d="M10.9 2.1l9.899 1.415 1.414 9.9-9.192 9.192a1 1 0 0 1-1.414 0l-9.9-9.9a1 1 0 0 1 0-1.414L10.9 2.1zm.707 2.122L3.828 12l8.486 8.485 7.778-7.778-1.06-7.425-7.425-1.06zm2.12 6.364a2 2 0 1 1 2.83-2.829 2 2 0 0 1-2.83 2.829z"/></symbol></svg>